<?xml version="1.0" encoding="utf-8"?>
<!-- Generator: Adobe Illustrator 13.0.0, SVG Export Plug-In . SVG Version: 6.00 Build 14948)  -->
<!DOCTYPE svg PUBLIC "-//W3C//DTD SVG 1.1//EN" "http://www.w3.org/Graphics/SVG/1.1/DTD/svg11.dtd">
<svg version="1.1" id="Layer_1" xmlns="http://www.w3.org/2000/svg" xmlns:xlink="http://www.w3.org/1999/xlink" x="0px" y="0px"
	 width="200px" height="43px" viewBox="0 0 200 43" enable-background="new 0 0 200 43" xml:space="preserve">
<rect x="74.609" y="31.299" fill="#E20613" width="125.391" height="11.592"/>
<path fill="#FFFFFF" d="M0,20.962h6.637c0.013,0.693,0.285,1.182,0.821,1.469c0.583,0.328,2.248,0.488,4.996,0.488
	c1.488,0,2.625-0.082,3.409-0.252c0.975-0.197,1.464-0.694,1.464-1.49c0-0.875-0.608-1.364-1.822-1.469
	c-0.56-0.052-1.653-0.078-3.283-0.078H9.1c-2.712,0-4.715-0.235-6.013-0.707c-1.939-0.705-2.908-2.37-2.908-4.995
	c0-3.057,1.069-4.917,3.212-5.583c1.651-0.51,4.46-0.764,8.42-0.764c2.785,0,4.956,0.104,6.514,0.313
	c2.2,0.3,3.582,1.233,4.14,2.802c0.226,0.614,0.356,1.443,0.393,2.487h-6.603c-0.07-0.535-0.385-0.895-0.946-1.077
	c-0.499-0.168-1.629-0.254-3.389-0.254c-1.666,0-2.963,0.086-3.89,0.254c-0.905,0.156-1.356,0.601-1.356,1.333
	c0,0.639,0.404,1.045,1.213,1.213c0.547,0.106,1.522,0.157,2.925,0.157h4.426c2.414,0,4.223,0.196,5.424,0.589
	c1.212,0.392,2.053,1.071,2.517,2.037c0.38,0.77,0.572,1.868,0.572,3.292c0,1.553-0.274,2.79-0.823,3.702
	c-0.546,0.914-1.402,1.561-2.569,1.939c-1.653,0.537-4.776,0.805-9.368,0.805c-2.571,0-4.532-0.086-5.889-0.256
	c-2.2-0.26-3.693-1.182-4.479-2.762C0.221,23.346,0.014,22.281,0,20.962"/>
<path fill="#FFFFFF" d="M42.844,26.742v-3.311c-0.226,0.809-0.499,1.438-0.82,1.881c-0.643,0.875-1.774,1.43-3.39,1.664
	c-0.952,0.133-2.173,0.197-3.659,0.197c-2.141,0-3.795-0.105-4.96-0.314c-1.701-0.324-2.844-1.123-3.427-2.391
	c-0.355-0.783-0.535-1.906-0.535-3.369c0-1.254,0.133-2.27,0.401-3.047c0.268-0.776,0.7-1.393,1.295-1.851
	c0.987-0.771,2.582-1.201,4.781-1.293c1.108-0.053,2.421-0.078,3.944-0.078c1.856,0,3.188,0.11,3.997,0.333
	c0.82,0.235,1.41,0.608,1.767,1.117c0.142,0.208,0.287,0.509,0.429,0.9v-2.076c0-0.992-0.107-1.692-0.322-2.096
	c-0.238-0.483-0.708-0.784-1.409-0.902c-0.69-0.129-1.917-0.195-3.677-0.195c-1.64,0-2.67,0.051-3.086,0.158
	c-0.69,0.168-1.07,0.625-1.142,1.371h-6.264c0.059-1.228,0.272-2.175,0.644-2.841c0.522-0.927,1.445-1.665,2.765-2.214
	c0.679-0.287,1.653-0.493,2.927-0.617c1.273-0.125,3.092-0.186,5.459-0.186c2.13,0,3.903,0.091,5.318,0.272
	c2.379,0.327,3.938,1.393,4.675,3.194c0.381,0.901,0.571,1.809,0.571,2.723v1.332v11.638H42.844z M37.153,18.67
	c-1.417,0-2.452,0.059-3.107,0.177c-1.189,0.222-1.784,0.862-1.784,1.919c0,1.097,0.644,1.763,1.928,2
	c0.391,0.078,1.665,0.117,3.818,0.117c1.45,0,2.475-0.059,3.07-0.176c1.129-0.236,1.694-0.895,1.694-1.979
	c0-1.204-0.796-1.855-2.39-1.96C39.348,18.703,38.27,18.67,37.153,18.67"/>
<path fill="#FFFFFF" d="M66.883,18.708H71.7v1.49c0,1.463-0.089,2.581-0.268,3.351c-0.321,1.436-1.254,2.441-2.802,3.018
	c-1.069,0.404-2.551,0.607-4.442,0.607c-2.629,0-4.502-0.17-5.621-0.51c-0.726-0.223-1.377-0.611-1.954-1.164
	c-0.578-0.557-0.979-1.193-1.206-1.912c-0.249-0.744-0.375-1.83-0.375-3.25v-7.624h-3.229V8.013h3.229V3.585h6.39v4.427H71.7v4.701
	H61.423v6.153c0,1.187,0.123,2.003,0.373,2.449c0.357,0.613,1.13,0.92,2.32,0.92c1.309,0,2.136-0.293,2.48-0.882
	c0.191-0.325,0.287-0.954,0.287-1.88V18.708z"/>
<path fill="#FFFFFF" d="M86.423,7.582c2.986,0,5.407,0.175,7.26,0.526c1.013,0.198,1.9,0.574,2.661,1.129
	c0.762,0.556,1.303,1.217,1.624,1.988c0.417,1.032,0.625,2.905,0.625,5.623c0,2.6-0.107,4.429-0.322,5.488
	c-0.44,2.168-1.797,3.564-4.067,4.191c-1.548,0.432-4.278,0.646-8.192,0.646c-3.117,0-5.513-0.189-7.19-0.57
	c-0.964-0.207-1.802-0.619-2.517-1.232c-0.714-0.613-1.213-1.344-1.499-2.195c-0.287-0.836-0.452-1.791-0.499-2.86
	c-0.037-0.862-0.054-1.842-0.054-2.938c0-2.56,0.149-4.362,0.445-5.408c0.596-2.089,2.159-3.389,4.693-3.898
	C80.986,7.745,83.328,7.582,86.423,7.582 M86.244,12.677c-2.248,0-3.705,0.208-4.372,0.625c-0.558,0.353-0.928,0.9-1.105,1.646
	c-0.132,0.536-0.197,1.392-0.197,2.567c0,1.266,0.095,2.162,0.285,2.684c0.322,0.928,1.053,1.497,2.196,1.706
	c0.736,0.131,1.873,0.196,3.408,0.196c1.379,0,2.402-0.047,3.068-0.137c1.296-0.17,2.125-0.738,2.479-1.706
	c0.178-0.508,0.268-1.443,0.268-2.801c0-1.514-0.119-2.553-0.356-3.115c-0.358-0.849-1.172-1.359-2.446-1.528
	C88.819,12.722,87.743,12.677,86.244,12.677"/>
<polygon fill="#FFFFFF" points="108.373,26.742 99.95,8.013 107.068,8.013 112.529,21.531 117.99,8.013 125.057,8.013 
	116.67,26.742 "/>
<path fill="#FFFFFF" d="M127.129,0h6.281v5.014h-6.281V0z M127.129,8.013h6.281v18.729h-6.281V8.013z"/>
<path fill="#FFFFFF" d="M152.936,18.667h-4.412c-0.064-0.811-0.445-1.312-1.133-1.501c-0.518-0.145-1.393-0.214-2.625-0.214
	c-1.342,0-2.236,0.125-2.686,0.376c-0.422,0.244-0.713,0.626-0.877,1.151c-0.123,0.422-0.184,0.995-0.184,1.717
	c0,0.913,0.109,1.588,0.33,2.03c0.314,0.633,0.836,1.002,1.566,1.107c0.486,0.066,1.152,0.096,1.996,0.096
	c1.703,0,2.746-0.174,3.131-0.525c0.338-0.299,0.529-0.727,0.578-1.288h4.449c-0.025,1.922-0.496,3.258-1.416,4.006
	c-0.549,0.459-1.199,0.771-1.947,0.932c-1.184,0.264-2.725,0.395-4.623,0.395c-2.094,0-3.75-0.146-4.967-0.434
	c-1.461-0.352-2.443-1.209-2.943-2.572c-0.346-0.938-0.518-2.159-0.518-3.665c0-2.923,0.637-4.834,1.908-5.737
	c0.545-0.379,1.32-0.658,2.332-0.839c1.01-0.18,2.32-0.27,3.93-0.27c2.137,0,3.842,0.153,5.115,0.46
	c0.697,0.172,1.293,0.496,1.785,0.975c0.494,0.478,0.822,1.044,0.986,1.705C152.846,17.112,152.918,17.811,152.936,18.667"/>
<path fill="#FFFFFF" d="M163.152,13.432c2.063,0,3.734,0.122,5.016,0.365c0.697,0.136,1.311,0.396,1.836,0.778
	c0.527,0.384,0.9,0.841,1.123,1.374c0.285,0.712,0.432,2.006,0.432,3.884c0,1.795-0.076,3.058-0.223,3.789
	c-0.305,1.496-1.24,2.461-2.811,2.895c-1.066,0.299-2.953,0.447-5.658,0.447c-2.15,0-3.805-0.131-4.965-0.393
	c-0.666-0.145-1.244-0.43-1.736-0.852c-0.492-0.426-0.84-0.93-1.035-1.518c-0.199-0.576-0.313-1.236-0.346-1.975
	c-0.025-0.595-0.035-1.272-0.035-2.03c0-1.767,0.102-3.012,0.307-3.734c0.41-1.443,1.49-2.341,3.238-2.692
	C159.398,13.545,161.016,13.432,163.152,13.432 M163.029,16.952c-1.553,0-2.559,0.142-3.02,0.431
	c-0.387,0.243-0.639,0.621-0.764,1.136c-0.09,0.371-0.135,0.961-0.135,1.773c0,0.875,0.064,1.493,0.197,1.853
	c0.221,0.641,0.725,1.035,1.516,1.178c0.508,0.09,1.293,0.135,2.352,0.135c0.955,0,1.66-0.031,2.121-0.094
	c0.895-0.117,1.469-0.51,1.713-1.178c0.123-0.351,0.186-0.997,0.186-1.935c0-1.046-0.082-1.764-0.248-2.151
	c-0.246-0.587-0.811-0.938-1.688-1.056C164.809,16.981,164.066,16.952,163.029,16.952"/>
<path fill="#FFFFFF" d="M173.752,26.666V13.73h4.215v2.638c0.172-0.615,0.369-1.073,0.592-1.38c0.73-1.039,2.193-1.557,4.387-1.557
	c3.006,0,4.852,0.997,5.533,2.989c0.254-1.037,0.77-1.79,1.539-2.259c0.799-0.486,1.984-0.73,3.563-0.73
	c2.605,0,4.393,0.645,5.361,1.935c0.705,0.928,1.059,2.309,1.059,4.14v7.159h-4.338v-6.795c0-1.126-0.277-1.88-0.836-2.257
	c-0.436-0.298-1.213-0.448-2.33-0.448c-1.348,0-2.26,0.236-2.736,0.703c-0.303,0.298-0.506,0.696-0.605,1.191
	c-0.072,0.342-0.109,0.825-0.109,1.449v6.157h-4.336v-6.55c0-0.694-0.039-1.194-0.111-1.502c-0.172-0.667-0.582-1.096-1.221-1.285
	c-0.385-0.118-1.004-0.177-1.85-0.177c-1.355,0-2.279,0.256-2.773,0.771c-0.311,0.306-0.508,0.69-0.59,1.15
	c-0.051,0.244-0.074,0.591-0.074,1.042v6.55H173.752z"/>
<polygon fill="#FFFFFF" points="76.566,33.529 78.93,33.529 81.154,39.297 83.132,33.529 85.945,33.529 87.855,39.297 
	90.146,33.529 92.52,33.529 89.351,41.098 86.229,41.098 84.532,35.652 82.745,41.098 79.653,41.098 "/>
<path fill="#FFFFFF" d="M91.154,41.098l4.301-7.568h3.121l4.184,7.568h-2.542l-0.763-1.352H94.52l-0.734,1.352H91.154z
	 M95.359,38.17h3.291l-1.665-3.016L95.359,38.17z"/>
<polygon fill="#FFFFFF" points="104.814,41.098 104.814,35.398 101.41,35.398 101.41,33.529 110.551,33.529 110.551,35.398 
	107.145,35.398 107.145,41.098 "/>
<path fill="#FFFFFF" d="M118.582,38.248h2.254v0.344c0,0.447-0.029,0.807-0.082,1.076c-0.055,0.27-0.146,0.49-0.277,0.66
	c-0.295,0.393-0.768,0.631-1.412,0.715c-0.549,0.074-1.709,0.111-3.479,0.111c-1.021,0-1.805-0.033-2.342-0.1
	c-0.994-0.131-1.619-0.564-1.875-1.309c-0.129-0.369-0.205-0.781-0.23-1.232c-0.025-0.436-0.039-0.896-0.039-1.381
	c0-0.879,0.049-1.512,0.145-1.896c0.109-0.443,0.307-0.795,0.592-1.053c0.285-0.26,0.678-0.441,1.178-0.549
	c0.498-0.107,1.395-0.162,2.695-0.162c1.123,0,1.955,0.014,2.488,0.039c0.549,0.031,0.971,0.092,1.27,0.184
	c0.301,0.092,0.549,0.24,0.746,0.443c0.35,0.355,0.521,0.955,0.521,1.803v0.236h-2.225c-0.012-0.199-0.041-0.357-0.09-0.475
	c-0.074-0.189-0.277-0.309-0.609-0.361c-0.229-0.037-0.717-0.055-1.469-0.055c-1.158,0-1.84,0.018-2.043,0.055
	c-0.426,0.078-0.691,0.277-0.791,0.6c-0.07,0.225-0.105,0.715-0.105,1.471c0,0.828,0.105,1.348,0.318,1.563
	c0.176,0.174,0.518,0.279,1.025,0.316c0.258,0.018,0.594,0.027,1.008,0.027c0.795,0,1.318-0.004,1.568-0.018
	c0.672-0.023,1.066-0.193,1.182-0.504C118.553,38.66,118.578,38.477,118.582,38.248"/>
<polygon fill="#FFFFFF" points="121.816,41.098 121.816,33.529 124.145,33.529 124.145,36.324 129.439,36.324 129.439,33.529 
	131.77,33.529 131.77,41.098 129.439,41.098 129.439,38.193 124.145,38.193 124.145,41.098 "/>
<path fill="#FFFFFF" d="M144.418,38.248h2.252v0.344c0,0.447-0.027,0.807-0.082,1.076s-0.146,0.49-0.277,0.66
	c-0.295,0.393-0.766,0.631-1.41,0.715c-0.551,0.074-1.709,0.111-3.479,0.111c-1.025,0-1.805-0.033-2.342-0.1
	c-0.994-0.131-1.619-0.564-1.877-1.309c-0.127-0.369-0.203-0.781-0.23-1.232c-0.025-0.436-0.037-0.896-0.037-1.381
	c0-0.879,0.047-1.512,0.145-1.896c0.107-0.443,0.305-0.795,0.59-1.053c0.287-0.26,0.68-0.441,1.18-0.549
	c0.498-0.107,1.395-0.162,2.695-0.162c1.123,0,1.953,0.014,2.486,0.039c0.549,0.031,0.973,0.092,1.271,0.184s0.547,0.24,0.746,0.443
	c0.346,0.355,0.521,0.955,0.521,1.803v0.236h-2.225c-0.012-0.199-0.043-0.357-0.09-0.475c-0.074-0.189-0.279-0.309-0.609-0.361
	c-0.229-0.037-0.719-0.055-1.469-0.055c-1.158,0-1.84,0.018-2.045,0.055c-0.426,0.078-0.689,0.277-0.789,0.6
	c-0.072,0.225-0.105,0.715-0.105,1.471c0,0.828,0.105,1.348,0.318,1.563c0.174,0.174,0.516,0.279,1.023,0.316
	c0.26,0.018,0.594,0.027,1.01,0.027c0.795,0,1.318-0.004,1.566-0.018c0.674-0.023,1.066-0.193,1.184-0.504
	C144.387,38.66,144.414,38.477,144.418,38.248"/>
<polygon fill="#FFFFFF" points="147.697,33.529 156.174,33.529 156.174,35.248 149.992,35.248 149.992,36.541 155.826,36.541 
	155.826,38.037 149.992,38.037 149.992,39.379 156.252,39.379 156.252,41.098 147.697,41.098 "/>
<polygon fill="#FFFFFF" points="157.168,41.098 157.168,33.529 160.871,33.529 165.51,39.291 165.449,33.529 167.648,33.529 
	167.648,41.098 163.912,41.098 159.342,35.398 159.41,41.098 "/>
<polygon fill="#FFFFFF" points="171.568,41.098 171.568,35.398 168.164,35.398 168.164,33.529 177.305,33.529 177.305,35.398 
	173.898,35.398 173.898,41.098 "/>
<path fill="#FFFFFF" d="M175.914,41.098l4.299-7.568h3.121l4.186,7.568h-2.545l-0.762-1.352h-4.934l-0.734,1.352H175.914z
	 M180.119,38.17h3.289l-1.664-3.016L180.119,38.17z"/>
<path fill="#FFFFFF" d="M187.783,41.098v-7.568h6.604c0.982,0,1.672,0.09,2.068,0.271c0.361,0.166,0.617,0.443,0.773,0.832
	c0.133,0.348,0.201,0.811,0.201,1.385c0,0.896-0.219,1.494-0.65,1.797c-0.221,0.152-0.561,0.264-1.02,0.334
	c-0.135,0.021-0.289,0.047-0.463,0.072c0.193,0.016,0.318,0.023,0.379,0.023c0.557,0.029,0.92,0.098,1.094,0.211
	c0.197,0.117,0.338,0.287,0.426,0.508c0.084,0.223,0.125,0.533,0.125,0.939v1.195h-2.357v-0.941c0-0.41-0.094-0.686-0.289-0.822
	c-0.125-0.08-0.301-0.127-0.527-0.137c-0.074-0.008-0.23-0.012-0.465-0.012h-3.58v1.912H187.783z M190.102,37.334h3.641
	c0.457,0,0.781-0.037,0.975-0.111c0.246-0.092,0.371-0.336,0.371-0.727c0-0.234-0.012-0.416-0.033-0.551
	c-0.047-0.262-0.193-0.428-0.449-0.498c-0.143-0.039-0.4-0.061-0.779-0.061h-3.725V37.334z"/>
<path fill="#FFFFFF" d="M56.754,40.014v-8.705h0.848v3.498c0.112-0.248,0.277-0.453,0.494-0.611c0.36-0.258,1.134-0.387,2.323-0.387
	c1.096,0,1.895,0.094,2.398,0.279c0.399,0.143,0.695,0.424,0.889,0.844c0.213,0.459,0.319,1.133,0.319,2.021
	c0,0.893-0.106,1.566-0.319,2.025c-0.194,0.422-0.49,0.703-0.889,0.846c-0.507,0.186-1.306,0.277-2.398,0.277
	c-0.793,0-1.386-0.049-1.777-0.15c-0.496-0.131-0.842-0.41-1.04-0.84v0.902H56.754z M60.325,34.586
	c-0.859,0-1.458,0.053-1.794,0.158c-0.229,0.07-0.406,0.18-0.534,0.328c-0.128,0.146-0.225,0.355-0.291,0.625
	c-0.074,0.307-0.11,0.725-0.11,1.256c0,0.988,0.147,1.633,0.441,1.932c0.174,0.176,0.438,0.293,0.79,0.354
	c0.34,0.059,0.854,0.088,1.539,0.088c0.89,0,1.5-0.053,1.829-0.158c0.232-0.072,0.413-0.182,0.54-0.328
	c0.128-0.146,0.225-0.355,0.291-0.625c0.073-0.307,0.11-0.729,0.11-1.262c0-0.984-0.147-1.627-0.441-1.926
	c-0.174-0.176-0.438-0.295-0.79-0.354C61.564,34.615,61.037,34.586,60.325,34.586"/>
<path fill="#FFFFFF" d="M63.855,33.898h0.929l2.799,5.51l2.521-5.51h0.894l-3.031,6.607c-0.344,0.75-0.604,1.256-0.778,1.521
	c-0.422,0.627-1.083,0.939-1.98,0.939c-0.081,0-0.199-0.004-0.354-0.012v-0.764c0.12,0.004,0.213,0.006,0.279,0.006
	c0.511,0,0.904-0.133,1.179-0.396c0.197-0.193,0.453-0.625,0.767-1.295l0.226-0.492h-0.319L63.855,33.898z"/>
<rect x="129.227" y="22.559" fill="#E20613" width="4.184" height="4.184"/>
</svg>
